<!-- Generated by IcoMoon.io -->
<svg version="1.1" xmlns="http://www.w3.org/2000/svg" width="1448" height="1024" viewBox="0 0 1448 1024">
<title></title>
<g id="icomoon-ignore">
</g>
<path d="M1266.221 484.937c18.611-0.405 31.811-6.119 35.048-23.82 1.922-10.519-4.248-17.246-16.234-17.802 0 0-34.744-1.821-74.748-3.591 0 0-59.475-2.428-76.063-2.782-14.818-0.354-29.232-0.455-39.245-0.303-9.356 0.152-13.706 4.956-15.627 12.643s-3.49 18.611-4.096 29.99c-0.455 8.598 8.901 12.694 18.561 12.34 0 0 11.885-0.556 30.445-1.416 21.039-0.809 78.339-3.338 78.339-3.338 20.027-0.759 42.381-1.416 63.622-1.922z"></path>
<path d="M1210.286 439.724c0 0 8.092-44.404 12.037-62.459 1.922-8.901-2.731-17.65-13.958-20.381-11.126-2.68-36.666-2.883-45.213-1.922-7.181 0.809-14.11 5.057-15.728 12.492-4.046 18.561-8.244 40.864-13.25 69.488-2.63 13.25-7.687 37.020-10.014 53.204-3.439 16.234-10.014 59.879-12.947 86.987-3.439 32.367-5.462 51.585-3.186 79.3 6.575 50.169 32.772 70.045 75.355 70.045 39.094 0 76.771-24.781 103.424-69.691 5.31-8.952 9.204-16.791 5.816-20.685-7.738-8.901-22.505-13.503-26.551-6.119-17.6 32.165-36.464 45.162-57.047 45.162-16.285 0-29.434-9.66-29.434-37.88 0-40.611 22.859-150.407 22.859-150.407 2.984-12.391 6.018-29.586 7.839-47.135z"></path>
<path d="M1124.21 490.197c-3.439 16.234-10.317 59.879-12.947 86.987-16.791 56.39-51.585 97.962-81.576 97.962-18.358 0-29.333-10.924-29.333-43.999 0-45.769 10.519-103.676 25.843-161.735 10.266-53.153 21.393-105.244 23.972-133.667 0.91-9.811 7.131-23.416-4.703-25.793-21.342-4.248-41.622-3.439-55.834 0.961-12.694 3.945-15.273 17.296-16.841 24.427-7.333 34.238-19.319 94.877-27.765 148.080-2.68 18.308-7.232 40.56-11.025 62.408 0 0-12.037 60.739-12.037 96.394 0 54.063 23.213 84.205 77.681 84.205 44.808 0 83.953-31.609 108.38-70.045 23.011-38.335 58.059-167.602 58.059-167.602 20.128-0.657-60.486 2.326-41.875 1.416z"></path>
<path d="M1176.503 439.522c0 0 1.922-44.151 5.867-62.256 1.922-8.901-10.621-23.264-19.167-22.303-7.181 0.809-14.11 5.057-15.728 12.492-4.046 18.561-13.25 69.488-13.25 69.488l-10.014 53.204c0 0-10.317 59.879-12.947 86.987-16.791 56.39-51.585 97.962-81.576 97.962-18.358 0-29.333-10.924-29.333-43.999 0-45.769-78.339-24.528-78.339 11.126 0 54.063 23.213 84.205 77.681 84.205 44.808 0 83.953-31.609 108.38-70.045 37.576-70.399 58.919-163.708 58.919-163.708l9.508-53.153z"></path>
<path d="M1001.922 449.232c21.646-52.040 1.922-142.669-12.289-138.218-12.694 3.945-2.63 89.162-4.198 96.293-7.333 34.238-12.188 36.868-40.409 76.265-18.662 22.607-40.105 38.487-63.369 42.431-65.291 6.726-74.9-23.112-50.473-65.291 38.082-65.746-12.34-42.836-37.172 0.253-7.586 13.149-9.558 28.321-10.014 43.19-0.556 18.611 2.478 42.229 26.804 59.627 26.349 18.864 47.489 15.122 67.314 11.278 21.292-4.299 39.802-14.717 55.783-29.080 0.101-0.051 52.698-38.74 68.022-96.748z"></path>
<path d="M1026.198 469.462c21.646-52.040 34.087-109.948 34.087-136.195 0-9.862-2.984-20.887-14.818-23.264-21.342-4.248-41.622-3.439-55.834 0.961-12.694 3.945 2.933 25.894 1.365 33.025-7.333 34.289 19.876 183.532 35.199 125.474z"></path>
<path d="M737.168 682.833c-22.809 0-38.082-19.673-38.082-58.666 0-74.849 26.652-155.312 74.445-155.312 5.361 0 10.165 0.708 14.363 2.377 15.071 5.26 25.186 57.351 20.28 91.084-10.317 65.695-39.397 120.517-71.006 120.517zM881.708 525.902c-3.591-70.449-44.606-100.693-101.047-100.693-99.125 0-162.342 88.353-162.342 187.477 0 80.311 43.797 113.791 107.621 113.791 75.304 0 131.391-53.457 152.328-151.469 2.883-17.296 3.388-29.687 3.439-49.107z"></path>
<path d="M581.578 307.231c-13.2 0-24.882 0.657-30.648 1.264-11.531 1.214-15.425 12.138-14.616 22.91 12.138 156.121-22.202 337.833-61.346 337.833-29.131 0-37.222-84.913-37.222-160.471 0-44.657 2.529-87.644 3.641-125.625 0.405-14.11-4.754-16.74-14.919-18.004-15.425-1.871-26.501-1.871-41.825 1.517-11.733 2.579-14.464 12.188-26.754 41.471-61.346 145.804-120.517 262.933-120.517 262.933-15.627-117.382 4.45-231.274 21.544-314.418 2.377-11.43-3.085-18.207-12.492-18.055-17.701 0.303-44.91 0.86-57.148 8.901-11.48 7.536-15.779 15.577-19.066 32.216-18.965 95.18-31.356 214.585-12.239 306.933 4.147 19.977 8.749 24.68 17.195 29.889s44.606 9.912 58.615 9.912c15.931 0 30.496-4.299 42.634-25.085 25.692-44.050 46.275-88.049 85.116-172.76 3.995 110.403 19.572 197.036 97.152 197.036 102.817 0 169.17-256.865 169.17-380.416-0.051-32.62-16.234-37.981-46.275-37.981z"></path>
</svg>
